<?xml version="1.0" encoding="UTF-8"?>
<svg id="Camada_2" data-name="Camada 2" xmlns="http://www.w3.org/2000/svg" viewBox="0 0 513.41 539.81">
  <defs>
    <style>
      .cls-1 {
        fill: #8c7bb7;
      }

      .cls-1, .cls-2 {
        stroke-width: 0px;
      }

      .cls-2 {
        fill: #131313;
      }
    </style>
  </defs>
  <g id="Camada_2-2" data-name="Camada 2">
    <g>
      <path class="cls-1" d="M224.7,332.15c-25.85-53.54-48.51-109.64-68-168.31-19.49-58.66-32.73-109.32-39.72-151.98C115.92,4.18,121.12.23,132.55,0c15.89-.21,34.95,4.8,57.2,15.04,20.97,9.39,32.3,18.35,34,26.87v.64c9.11,76.37,25.95,150.6,50.52,222.7,46.6-68.04,84.41-136.84,113.44-206.38,5.29-12.37,22.77-25.6,52.43-39.68,23.72-11.09,41.52-16.85,53.38-17.28,4.23.21,6.14,1.39,5.72,3.52-20.13,58.67-47.4,116.47-81.82,173.43-34.43,56.95-73.03,109.86-115.82,158.7,20.54,48,42.31,89.22,65.3,123.67,22.98,34.44,43.69,58.28,62.12,71.51,1.06.85.21,1.7-2.54,2.56-9.33,3.63-21.72,3.63-37.18,0-17.37-4.05-33.05-12.59-47.03-25.59-28.81-27.09-58.26-67.52-88.34-121.27-59.53,59.72-116.93,103.35-172.22,130.87-28.39,14.08-52.64,20.9-72.77,20.48-6.35-.21-9.32-1.07-8.9-2.56,0-.43.32-.75.95-.96,36.43-20.27,73.88-48,112.33-83.19,38.45-35.2,75.57-75.51,111.37-120.95h.01Z"/>
      <path class="cls-2" d="M238.8,332.15c-25.85-53.54-48.51-109.64-68-168.31-19.49-58.66-32.73-109.32-39.72-151.98C130.02,4.18,135.22.23,146.66,0c15.89-.21,34.95,4.8,57.2,15.04,20.97,9.39,32.3,18.35,34,26.87v.64c9.11,76.37,25.95,150.6,50.52,222.7,46.6-68.04,84.41-136.84,113.44-206.38,5.29-12.37,22.77-25.6,52.43-39.68,23.72-11.09,41.52-16.85,53.38-17.28,4.23.21,6.14,1.39,5.72,3.52-20.13,58.67-47.4,116.47-81.82,173.43-34.43,56.95-73.03,109.86-115.82,158.7,20.54,48,42.31,89.22,65.3,123.67,22.98,34.44,43.69,58.28,62.12,71.51,1.06.85.21,1.7-2.54,2.56-9.33,3.63-21.72,3.63-37.18,0-17.37-4.05-33.05-12.59-47.03-25.59-28.81-27.09-58.26-67.52-88.34-121.27-59.53,59.72-116.93,103.35-172.22,130.87-28.39,14.08-52.64,20.9-72.77,20.48-6.35-.21-9.32-1.07-8.9-2.56,0-.43.32-.75.95-.96,36.43-20.27,73.88-48,112.33-83.19,38.45-35.2,75.57-75.51,111.37-120.95h0Z"/>
    </g>
  </g>
</svg>