<svg fill="none" height="100" viewBox="0 0 100 100" width="100" xmlns="http://www.w3.org/2000/svg"><path clip-rule="evenodd" d="m23.1268 19.6194c3.1769-1.2505 6.3846-1.199 9.6682-.265 1.9129.6312 3.5508 1.5644 4.6219 3.2683.1858.2954.4101.3016.7232.2138 1.3911-.3898 2.7958-.3853 4.1891-.0229 2.4536.6381 4.4333 2.0743 6.2936 3.7005.1327.116.2608.2373.3895.3593l.0002.0001.0001.0001.0001.0001.0001.0001c.3071.2909.6177.5851 1.002.8176.0519-.0451.1028-.089.1528-.1321l.0002-.0002c.1059-.0913.2081-.1794.3087-.2693 1.2598-1.1254 2.5432-2.2179 3.9897-3.1142 2.3126-1.433 4.7718-2.0312 7.462-1.3169.4319.1146.5917-.1172.7743-.382l.0002-.0003c.7331-1.0631 1.6694-1.9087 2.8581-2.4328 3.8521-1.6982 7.7499-1.9157 11.6953-.2915.3756.1546.6493.3765.8657.7063.5212.7941.9084 1.6477 1.1558 2.5577.11.4045.2754.6211.7415.7104 1.2959.2486 2.515.7344 3.6726 1.366.0327.0179.0647.0386.0971.0596.1174.0758.2386.1542.4065.1057.0914-.2092.0034-.3873-.0824-.5608-.0184-.0373-.0367-.0744-.0531-.1115-1.5779-3.5682-4.303-5.9719-7.875-7.4954-2.7941-1.1917-5.7323-1.6328-8.76-1.5174-2.2474.0856-4.41.5197-6.3864 1.646-.028.0159-.0558.0346-.0839.0536h-.0001c-.1178.0794-.2412.1626-.4047.0596-.0599-.2298.008-.4359.0806-.6444.5011-1.4376 1.5799-2.2163 3.0201-2.5846 3.0564-.7814 6.1607-.7477 9.2758-.5312.0629.0044.1263.0125.1897.0206.2057.0263.4122.0527.6075-.0474-.0288-.1939-.1391-.2716-.2449-.346l-.0237-.0167c-2.1259-1.5163-4.377-2.8025-6.9068-3.54547-2.0361-.59799-4.0743-.80733-6.1047.076-.4006.17429-.7732.39727-1.1715.63577h-.0001c-.2572.154-.5252.3144-.8184.4723.1635-1.25239.8878-2.04438 1.6812-2.91193l.1199-.13123c-3.4238-.00278-6.1783 1.09049-8.2183 3.78096-.5503-2.20663.0912-3.98825 1.6915-5.50391-3.1944.23459-5.3027 1.71961-5.9365 5.06961-2.1796-2.44463-4.8076-3.4275-8.013-3.31981.1356.16664.2666.32126.392.46927l.0003.00036.0007.00091.0001.00012.0001.00007c.2706.3194.5152.60803.7239.91998.0336.05023.068.10047.1026.15096l.0001.00011.0001.00012c.2683.39156.5464.79751.5311 1.32241-.2643.0153-.4151-.091-.5566-.1907-.022-.0155-.0437-.0308-.0656-.0455-1.8607-1.24721-3.8914-1.58162-6.075-1.11694-3.1235.66467-5.8695 2.10844-8.4129 3.96854-.0166.0121-.0347.024-.0532.036l-.0001.0001c-.0952.0622-.2003.1309-.1605.2812.0704.0632.144.0496.2178.0361.0234-.0043.0468-.0086.0701-.0104 2.9667-.2369 5.9323-.3413 8.8748.2299 1.3037.253 2.5656.6351 3.4131 1.7562.3767.4982.7182 1.0262.7538 1.7017-.2741.0024-.4518-.1021-.621-.2015-.0392-.023-.0779-.0457-.1172-.0668-.8208-.4401-1.6793-.7868-2.5884-1.0017-3.8242-.9043-7.5928-.6026-11.2765.647-3.7944 1.2871-6.7866 3.578-8.6636 7.1525-.2447.4659-.4383.9524-.531 1.5758 1.4086-.7982 2.8056-1.3667 4.2847-1.7072.4036-.0929.581-.2792.6637-.6484.1994-.8902.6388-1.6716 1.1436-2.4262.3246-.4852.7465-.8022 1.2977-1.0191zm12.627 70.7036c-1.5542-2.2549-3.0193-4.5667-4.2501-7.0647-.6266-1.2147-1.1449-2.4288-1.6351-3.6533-1.2758-3.1868-2.1865-6.4509-2.2484-9.9136-.0813-4.5461 1.0131-8.7649 3.4591-12.6299.0163-.0259.0325-.0519.0488-.078.1715-.2752.347-.5569.7411-.7101.1268.1714.2507.3443.3742.5166l.0001.0001c.2853.3981.5688.7937.8828 1.1641.3568.4208.3151.7645.078 1.2363-2.1513 4.282-2.7987 8.7866-1.9184 13.4869.6827 3.6449 2.1259 7.024 3.8643 10.2831 1.6232 3.0432 3.3912 5.9978 5.9028 8.4395.0767.0746.1523.1511.2283.228.3519.3563.7116.7205 1.2347.9429.0098-.0736.02-.1357.0289-.1903l.0001-.0002v-.0001c.0162-.099.0284-.1735.0273-.2477-.0357-2.3544-.2235-4.697-.6857-7.0082-.5655-2.828-1.6464-5.4927-2.7261-8.1542v-.0001l-.1395-.3441-.0196-.0484c-.7442-1.8363-1.4882-3.672-1.8172-5.634-.0185-.1103-.0443-.2219-.0702-.3345l-.0001-.0001c-.0864-.3747-.1757-.7619-.0114-1.157.2957.0521.4172.2364.5317.41.027.041.0537.0814.0821.1194.293.3906.58.7858.867 1.181.5025.6919 1.0048 1.3837 1.5391 2.0507 2.753 3.4366 4.6637 7.259 5.6215 11.548.1577.7065.2987 1.4165.4397 2.1265v.0001c.2628 1.3236.5256 2.6472.8971 3.9472.2675.9364.6899 1.7903 1.4228 2.465.9935.9146 2.3146.8487 3.229-.1439.5558-.6033.9214-1.3055 1.1608-2.0776.3597-1.1606.5843-2.3502.8088-3.5397v-.0001c.0932-.4936.1864-.9872.2892-1.4786.7998-3.8228 2.0308-7.4721 4.3722-10.6776 1.1377-1.5576 2.2856-3.1081 3.4334-4.6585l.0002-.0002.6352-.8582c.0127-.0172.0253-.035.0379-.0529.089-.1265.1829-.2601.3837-.2318.1667.1111.1403.2577.1134.4068-.0048.0268-.0097.0537-.0134.0804-.2661 1.9066-.8028 3.7404-1.5414 5.5173-1.8582 4.4701-3.633 8.9608-3.9305 13.8632-.0624 1.0275-.0559 2.0488-.0488 3.1417.4401-.127.6978-.3574.9436-.577.0334-.0299.0667-.0596.1001-.0888 1.0499-.9171 1.958-1.963 2.7675-3.0878 2.4103-3.3492 4.3944-6.9302 5.9335-10.7479 1.0205-2.5314 1.7819-5.1364 1.9586-7.864.2267-3.4986-.2757-6.9278-1.8734-10.0592-.7184-1.4081-.554-2.3307.4197-3.3933.565-.6167.6295-.6645 1.1103.0526 1.2713 1.896 2.1884 3.9429 2.8029 6.137 1.1249 4.017 1.0985 8.036.05 12.0475-1.3106 5.0145-3.558 9.6148-6.4739 13.9076-.2279.3355-.4451.6782-.6781 1.0457l-.0002.0003-.0004.0006-.0001.0003c-.1133.1786-.2302.3631-.354.5556 2.9868-.9506 6.4905-3.2375 9.1727-7.1254 5.7469-8.3305 6.778-17.1621 2.5949-26.5039 3.0079 2.0392 5.2157 4.7039 6.729 7.953 1.5031 3.227 2.2619 6.5909 1.9598 10.1786 1.0019-1.1858 1.7987-2.446 2.5148-3.7629 2.0039-3.6851 1.8982-7.3594-.1502-10.9595-2.4506-4.3071-6.0701-7.3609-10.6547-9.312-.8408-.3579-.9351-.5038-.694-1.3457l.0004-.0012c.2435-.8502.3658-1.2772.6399-1.4279.2766-.152.7078-.0227 1.574.237l.0614.0184c5.6285 1.6869 9.3848 5.4453 11.9708 10.5005.2382.4658.4477.9459.6597 1.4319.0989.2268.1984.4549.3017.6834.2005-.1373.2363-.3067.2694-.4634v-.0002c.007-.033.0138-.0655.0221-.0969.4219-1.6093.6386-3.2338.5101-4.9065-.1802-2.3461-.9911-4.4189-2.5646-6.1929-1.4402-1.6237-3.2774-2.7042-5.1923-3.6747-.6553-.3322-1.3198-.6466-1.9843-.961-1.2675-.5998-2.5351-1.1996-3.7391-1.9225l-.0546-.0326c-.2407-.1431-.4742-.282-.5743-.5791-.6204-1.8416-1.4828-3.5792-2.3587-5.3109-.0121-.0241-.0271-.0483-.0423-.0731l-.0001-.0001c-.066-.1072-.1369-.2222-.0049-.3567.1812-.0207.2946.0831.4065.1857l.0001.0001h.0001c.0343.0314.0684.0627.1044.0903.2654.2034.5291.4092.7927.6149.4341.3389.8683.6777 1.3105 1.006 1.7193 1.2764 3.6476 2.1726 5.5756 3.0686l.0003.0002h.0001.0001l.0001.0001c.6136.2852 1.2273.5704 1.8341.8678 3.0268 1.4835 5.662 3.4012 7.3689 6.3693.0118.0205.0229.0424.0341.0647.0587.1165.1226.2432.3296.2375.0065-.0191.0148-.0389.0233-.0591.019-.0451.0389-.0926.0414-.141.086-1.6555.0528-3.303-.2579-4.9408-.4501-2.3723-1.718-4.1195-3.9119-5.2325-1.5556-.7891-3.1834-1.3824-4.8522-1.8637-4.0365-1.1642-7.6651-2.9832-10.4568-6.1864-.039-.0448-.0841-.0867-.1293-.1287-.1428-.1326-.2869-.2665-.2455-.4969.1225-.1485.2798-.1721.4434-.1922.9324-.1148 1.6592-.5702 2.2435-1.2874 1.6101-1.9764 1.7259-4.128.8143-6.4154-.0916-.2297-.2411-.3498-.4548-.4401-3.2326-1.3648-6.4449-1.2646-9.5401.3274-3.2569 1.6752-3.9961 5.3095-1.6873 7.9622.3526.4052.6638.8466.9741 1.2868.0596.0846.1192.1691.1791.2534.9299 1.3084 1.716 2.7012 2.5021 4.094v.0001l.0002.0003c.5026.8905 1.0052 1.781 1.5455 2.6495.4487.7214.4382.7407-.285 1.2149-.9992.6552-1.5977 1.5211-1.7339 2.7333-.0821.7302-.083 1.4583-.0839 2.1863-.0003.2871-.0007.5742-.006.8614-.0199 1.0703-.5469 1.8937-1.104 2.7642-.2017.3153-.4074.6367-.5945.9783-.1765-.3567-.238-.7061-.2979-1.0463-.0633-.3599-.1249-.7094-.3188-1.0467-1.0961 2.0087-1.9059 4.0494-2.7244 6.1296-.0879-.2019-.1739-.4039-.2597-.6052-.5372-1.2613-1.064-2.498-1.966-3.5376-.1837.8865-.2989 1.7325-.3575 2.5823-.052.7549-.0814 1.5157-.0493 2.271.0263.6171.071 1.2337.1158 1.8502v.0001c.0606.8351.1212 1.6701.1358 2.506.0278 1.5904-1.2262 2.9658-2.8197 3.1672-1.2528.1584-2.4392-.1673-3.6134-.5687-3.1418-1.0741-3.1873-4.2028-2.1438-6.2748.237-.4706.6325-.7298 1.1551-.748.4198-.0146.8279-.0891 1.2362-.1636h.0001.0001v-.0001h.0001c.1663-.0303.3326-.0607.4998-.087.7563-.119 1.3421-.4301 1.7747-1.0997.1242-.1923.2445-.388.3649-.5839l.0002-.0003c.3943-.6416.79-1.2854 1.3284-1.8174.3026-.299.366-.5428.2893-.9383-.4266-2.1972-.6266-4.4126-.5495-6.655.0868-2.5229 1.0879-3.8763 3.3701-4.4875 1.6455-.4406 2.9465-1.4478 4.2259-2.6511-2.1591-1.3183-4.4206-1.5615-6.853-.9387.0656-.3835.2036-.724.3385-1.0565.1497-.3692.2954-.7285.3333-1.1258-.0545.004-.0976.0053-.1329.0064-.0606.0019-.0983.0031-.1316.0157-.0878.0332-.1724.0747-.257.1161l-.0352.0172-.0373.0181c-2.285 1.0984-3.2882 3.0265-3.3773 5.4101-.1325 3.5501.0597 7.0997.2641 10.6456.0656 1.1372-.5217 1.7965-1.664 1.8029-.9608.0053-1.9217.0025-2.8826-.0003-1.689-.0049-3.378-.0099-5.066.0294-1.3685.0318-2.0366-.7167-1.964-2.0852.0329-.62.0832-1.239.1336-1.8579.0919-1.1294.1838-2.2589.1696-3.3948-.0158-1.2767-.0104-2.5536-.005-3.8305.0017-.3996.0034-.7991.0044-1.1987.0065-2.4822-1.0924-4.3158-3.308-5.4921-.0353-.0187-.0698-.0417-.1049-.0651-.1295-.0862-.2672-.1779-.4797-.0812-.0103.3423.1217.6474.2537.9526.0711.1646.1423.3292.1912.4997.1601.558.0284.7344-.5396.5611-.8345-.2547-1.6866-.259-2.525-.1803-1.2724.1195-2.4823.4833-3.5288 1.2086.0321.2418.1634.349.2903.4526.0128.0105.0255.0209.0381.0314 1.2282 1.0246 2.5235 1.916 4.1159 2.3363 1.735.4578 2.6532 1.671 2.932 3.3751.0962.5884.1294 1.191.1392 1.788.0307 1.8592-.2118 3.6947-.5328 5.5225-.0066.0372-.0136.0746-.0207.1122l-.0001.0008c-.0587.3118-.1192.6331.0909.9272.2515.3522.5043.7035.7571 1.0548l.0013.0018c.4487.6237.8975 1.2474 1.3394 1.8758.2692.3828.6184.6248 1.0766.7136.1289.0249.2575.0515.3862.078.5434.1119 1.087.224 1.6473.2195.6317-.0049 1.0604.2865 1.3655.8252.4826.852.5822 1.7826.5663 2.7215-.0176 1.0382-.3996 1.9445-1.2274 2.6328-1.3598 1.1309-3.0105 1.4832-4.6987 1.4714-1.6771-.0118-2.7806-.9827-3.1457-2.4994-.1819-.7555-.0912-1.5328-.0019-2.2991l.0027-.0226c.2572-2.2065.2638-4.4154.0073-6.6195-.01-.0863-.0106-.177-.0112-.27-.0018-.2775-.0038-.5754-.2577-.8377-.7834.8228-1.2112 1.8166-1.6406 2.8139-.1989.462-.3981.9247-.6331 1.3715-.1789-.4093-.3557-.8179-.5322-1.2258v-.0001c-.6933-1.6022-1.3822-3.1941-2.1744-4.7834-.1923.2847-.2257.6011-.2592.9186-.0408.3858-.0817.7733-.4076 1.1082-.1606-.2679-.3328-.5264-.5036-.7826-.5836-.8757-1.1494-1.7248-1.1686-2.8325-.0074-.422-.0077-.8441-.0079-1.2662-.0003-.3762-.0006-.7524-.0058-1.1286-.0214-1.5356-.5415-2.8046-1.9723-3.594-.0295-.0163-.0603-.0318-.0915-.0476-.1621-.082-.3366-.1702-.3969-.3899.0287-.0525.0571-.1062.0858-.1604l.0001-.0002c.0625-.1182.1264-.2391.1976-.3556.4883-.7995.9654-1.6054 1.4424-2.4112l.0001-.0001c1.3565-2.2916 2.7129-4.5827 4.3267-6.725 1.526-2.0257 1.1615-4.5187-.7022-6.2249-2.7363-2.5052-7.662-2.9788-11.1173-1.2919-.1298.0634-.2442.147-.2939.2878-.6598 1.8663-.9092 3.7252.139 5.5476.6946 1.2078 1.5804 2.1759 3.0964 2.326l.022.0019.0082.0007c.1053.0087.2261.0187.2626.1965-.0248.0328-.0501.068-.0763.1046-.0593.0827-.1233.1717-.196.2531-2.1372 2.391-4.7004 4.1815-7.7023 5.3735-.9917.3938-2.0064.7234-3.021 1.0531-1.2501.4061-2.5002.8122-3.7074 1.3384-2.235.974-4.03204 2.3303-4.72711 4.7938-.5559 1.9702-.61961 3.9674-.50382 5.9855.0057.0992.03583.199.18539.2017.1147-.0595.16721-.1695.21999-.2801.02349-.0492.04704-.0985.07615-.1436.7964-1.2319 1.67973-2.3905 2.7895-3.3723 1.7231-1.5245 3.7281-2.591 5.8174-3.5228 2.8668-1.2786 5.618-2.7428 7.9893-4.8198.2537-.2222.5026-.4498.788-.7109l.0001-.0001c.144-.1317.2973-.2719.4652-.4243-.991 1.8719-1.8908 3.5977-2.5509 5.415-.3596.9899-.9603 1.5861-1.8639 2.0439-2.1754 1.1022-4.3464 2.2161-6.4802 3.3939-2.0438 1.1283-3.7741 2.6224-4.88799 4.6971-1.30251 2.4259-1.47811 5.0205-1.04273 7.6831l.00756.0463c.11015.6743.2217 1.3571.54554 2.1424.03812-.0724.06663-.124.08832-.1633h.00002c.03331-.0602.05055-.0914.06185-.1246 1.28973-3.7818 3.65153-6.8179 6.73173-9.3361 2.1069-1.7224 4.53-2.828 7.1954-3.4316.5433-.1231.8467.0043.9328.5791.0529.3532.1339.7118.269 1.0414.2398.5848.0141.8265-.5401 1.0628-4.4316 1.8899-8.0012 4.8063-10.4961 8.9032-1.6014 2.6297-2.3415 5.4779-1.5635 8.542.6047 2.3819 1.9207 4.4231 3.3547 6.3926.0067.0093.0134.0189.0203.0286v.0001c.0585.0834.1252.1786.2608.1482-.2847-7.5478 2.633-13.5856 8.7456-18.2847.0476.357-.0531.551-.1459.7297-.0161.0311-.032.0618-.0469.0927-1.4894 3.1076-2.269 6.3885-2.3663 9.8161-.1033 3.6361.5503 7.1567 1.9511 10.5189 2.321 5.5711 5.9296 9.9926 11.6721 12.4537.0287.0123.0568.029.0855.0461.1072.0637.2226.1323.4053-.0061zm6.9282-24.0264c-.3346-.3701-.4804-.7326-.1275-1.1627.2789-.9116.8578-1.2366 1.7084-1.3709.8081-.1276 1.6084-.4046 2.366-.7227 2.2411-.9409 4.4608-.9607 6.7056-.0318.9693.401 1.9803.6913 3.0151.8736.3405.06.5373.2163.6966.4948l.0184.0321c.7642 1.3361.7783 1.3607-.2819 2.508-1.2658 1.3698-2.6876 2.5611-4.5201 3.1151-2.2552.6818-4.3967.331-6.3741-.9207-1.2155-.7694-2.2471-1.7535-3.2065-2.8148zm-31.2863-31.8328c-.6368.3469-1.2328.674-1.87588 1.027-.0945-.3858.01085-.7273.11181-1.0545.02342-.0759.0466-.151.067-.2258.48137-1.7641 1.52937-3.1538 3.03577-4.1897 2.29-1.5748 4.8567-2.5892 7.471-3.4972.351-.1219.5784-.0906.7258.3349.3602 1.0395.9296 1.9797 1.6253 2.8781-.1993.2256-.4351.3646-.6652.5002l-.0001.0001h-.0001c-.0963.0568-.1916.113-.2827.1746-1.9557 1.3231-4.1056 2.1986-6.4056 2.7397-1.2984.3054-2.5621.7166-3.8071 1.3126zm67.375-6.8067c-.0461.1091-.0931.2202-.1402.3343-.0873.1464-.1688.2923-.2489.4357l-.0001.0002c-.1848.3308-.3622.6484-.5868.9292-.3232.4041-.2066.5974.1804.834 2.0352 1.2442 4.1518 2.2851 6.5034 2.8368 1.9887.4665 3.9298 1.0829 5.6296 2.2651l.0126.0088c.0941.0657.1908.1333.3231.0834.104-.1467.0695-.3031.0355-.4577-.0024-.0112-.0049-.0224-.0073-.0335-.0017-.0081-.0034-.0162-.0051-.0242-.4169-2.0215-1.4516-3.6702-3.1516-4.8669-2.3253-1.6368-4.9394-2.6888-7.643-3.5444-.2939-.093-.4413-.0292-.5387.2703-.1007.3097-.2282.6109-.3629.9289zm1.783 41.5899c.7114 2.0118 1.2326 4.0026 1.114 6.1217-.0997 1.7807-.4694 3.4415-1.7974 4.7522-.541.534-1.0955 1.0545-1.6933 1.6158h-.0001c-.2814.2643-.5724.5375-.8762.8254 1.6765-4.6612 2.9723-9.2519 2.6921-14.2064.2925.1557.3643.3752.4346.5899.0341.1041.0679.2072.1263.3014zm-59.4754 11.719c.0922.1029.1865.2081.2861.3143.1401.1249.2656.2588.3899.3914.254.2711.5026.5364.8589.7071-1.675-4.5172-2.7744-9.1266-2.696-13.9659-.1359.0555-.194.0919-.2102.1415-.0972.2978-.1983.5945-.2995.8913-.4321 1.267-.8641 2.534-.9829 3.8829-.2301 2.6151-.0586 5.1119 2.0855 7.0461.1995.1799.3795.3808.5682.5913z" fill="#000" fill-rule="evenodd"/></svg>